<svg width="211" height="47" viewBox="0 0 211 47" fill="none" xmlns="http://www.w3.org/2000/svg">
<mask id="path-1-inside-1_325_11601" fill="white">
<path d="M206.651 4.37882C204.817 2.38109 201.427 0 195.701 0C195.18 0 194.64 0.0212978 194.095 0.0596338L193.878 0.076672C191.421 0.257703 189.282 0.834873 187.455 1.59733C186.733 1.32046 185.961 1.17564 185.179 1.17564C185.023 1.17564 184.866 1.18203 184.709 1.19268L175.105 1.90189C173.816 1.99773 172.634 2.4748 171.67 3.22022C170.179 2.59407 168.356 2.17237 166.151 2.17237C165.717 2.17237 165.268 2.18941 164.817 2.22136L164.453 2.24904C162.539 2.38961 160.801 2.83473 159.255 3.48006C158.676 3.3118 158.074 3.22235 157.464 3.22235C157.309 3.22235 157.151 3.22874 156.994 3.23939L147.39 3.94861C145.559 4.08491 143.945 4.98794 142.868 6.34248C140.193 5.15832 136.962 4.55559 133.199 4.55559C132.227 4.55559 131.202 4.59606 130.149 4.67273L127.494 4.86867C121.205 5.33296 116.434 6.92391 112.976 9.71178C110.983 8.17622 107.981 6.80038 103.621 6.80038C103.096 6.80038 102.553 6.82168 102.007 6.86214L101.79 6.87918C101.239 6.91965 100.69 6.98354 100.148 7.0666C100.228 5.28611 99.5627 3.54608 98.3035 2.2746C97.1018 1.06063 95.4682 0.38549 93.773 0.38549C93.6177 0.38549 93.4603 0.391879 93.3029 0.402528L83.6634 1.11387C80.5346 1.34602 78.0375 3.82082 77.7737 6.95159L77.5227 9.95884C76.0104 9.45195 74.2195 9.12823 72.1138 9.12823C71.5927 9.12823 71.0524 9.14952 70.5079 9.18786L70.2909 9.2049C67.8343 9.38593 65.6945 9.9631 63.8674 10.7256C63.1463 10.4487 62.3742 10.3039 61.5894 10.3039C61.4341 10.3039 61.2767 10.3103 61.1193 10.3209L56.1443 10.6894L56.1549 10.5722C56.3166 8.70653 55.6529 6.86427 54.3384 5.53103C53.1346 4.31067 51.4968 3.63127 49.7973 3.63127C49.642 3.63127 49.4846 3.63766 49.3272 3.64831L39.6877 4.35965C36.5652 4.58967 34.0703 7.05595 33.8001 10.1803L33.4853 13.8095C31.1435 12.9554 28.4018 12.5316 25.2156 12.5316C24.2584 12.5316 23.2417 12.5699 22.1974 12.6487L20.2341 12.7936C13.4596 13.2941 8.47396 15.1427 4.98569 18.446C2.0717 21.2126 0.412638 24.8396 0.057429 29.2291V29.2631C-0.019143 30.2428 -0.019143 31.214 0.057429 32.2299C0.363717 36.3809 2.06106 39.8907 4.96442 42.3762C8.12726 45.0831 12.5833 46.4547 18.2114 46.4547C19.1558 46.4547 20.1533 46.4164 21.1743 46.3418L23.029 46.2055C27.651 45.8648 31.4136 44.9766 34.4085 43.522C35.4337 44.1844 36.6333 44.5422 37.8648 44.5422C38.0201 44.5422 38.1775 44.5358 38.3349 44.5251L47.9745 43.8138C48.4615 43.7776 48.9316 43.6881 49.3825 43.5497C49.6973 43.5987 50.0185 43.6221 50.3397 43.6221C50.495 43.6221 50.6524 43.6157 50.8097 43.6051L60.4493 42.8937C62.2998 42.7574 63.9291 41.8352 65.0053 40.4573C66.1922 41.5882 67.7683 42.2143 69.3997 42.2143C69.555 42.2143 69.7124 42.2079 69.8698 42.1973L79.5455 41.4817C80.0198 41.4476 80.4771 41.3603 80.9153 41.2282C81.2195 41.273 81.5257 41.2964 81.8363 41.2964C81.9916 41.2964 82.1489 41.29 82.3064 41.2793L91.9459 40.568C93.7964 40.4317 95.4257 39.5095 96.5019 38.1315C97.6888 39.2624 99.2649 39.8886 100.896 39.8886C101.052 39.8886 101.209 39.8822 101.366 39.8716L111.042 39.156C112.918 39.0175 114.567 38.0719 115.643 36.6599C118.238 37.8547 121.492 38.5724 125.499 38.5724C126.403 38.5724 127.354 38.5362 128.322 38.4638L130.94 38.27C135.622 37.9249 139.457 36.9644 142.524 35.3628C143.598 36.1232 144.885 36.5385 146.21 36.5385C146.365 36.5385 146.523 36.5321 146.68 36.5214L156.32 35.8101C159.444 35.5801 161.937 33.1116 162.207 29.9873L162.573 25.7575C162.862 25.798 163.156 25.8193 163.451 25.8193C163.607 25.8193 163.764 25.8129 163.921 25.8023L167.739 25.5211L167.569 27.5742C167.414 29.4357 168.082 31.2737 169.394 32.6005C170.596 33.8166 172.232 34.4939 173.927 34.4939C174.082 34.4939 174.239 34.4875 174.397 34.4768L184.036 33.7655C185.887 33.6292 187.516 32.707 188.592 31.329C189.781 32.4599 191.355 33.0861 192.987 33.0861C193.142 33.0861 193.3 33.0797 193.457 33.0691L203.133 32.3534C206.266 32.1213 208.763 29.6422 209.022 26.5072L210.007 14.5762C210.326 10.766 209.101 7.05169 206.651 4.38521V4.37882Z"/>
</mask>
<path d="M206.651 4.37882C204.817 2.38109 201.427 0 195.701 0C195.18 0 194.64 0.0212978 194.095 0.0596338L193.878 0.076672C191.421 0.257703 189.282 0.834873 187.455 1.59733C186.733 1.32046 185.961 1.17564 185.179 1.17564C185.023 1.17564 184.866 1.18203 184.709 1.19268L175.105 1.90189C173.816 1.99773 172.634 2.4748 171.67 3.22022C170.179 2.59407 168.356 2.17237 166.151 2.17237C165.717 2.17237 165.268 2.18941 164.817 2.22136L164.453 2.24904C162.539 2.38961 160.801 2.83473 159.255 3.48006C158.676 3.3118 158.074 3.22235 157.464 3.22235C157.309 3.22235 157.151 3.22874 156.994 3.23939L147.39 3.94861C145.559 4.08491 143.945 4.98794 142.868 6.34248C140.193 5.15832 136.962 4.55559 133.199 4.55559C132.227 4.55559 131.202 4.59606 130.149 4.67273L127.494 4.86867C121.205 5.33296 116.434 6.92391 112.976 9.71178C110.983 8.17622 107.981 6.80038 103.621 6.80038C103.096 6.80038 102.553 6.82168 102.007 6.86214L101.79 6.87918C101.239 6.91965 100.69 6.98354 100.148 7.0666C100.228 5.28611 99.5627 3.54608 98.3035 2.2746C97.1018 1.06063 95.4682 0.38549 93.773 0.38549C93.6177 0.38549 93.4603 0.391879 93.3029 0.402528L83.6634 1.11387C80.5346 1.34602 78.0375 3.82082 77.7737 6.95159L77.5227 9.95884C76.0104 9.45195 74.2195 9.12823 72.1138 9.12823C71.5927 9.12823 71.0524 9.14952 70.5079 9.18786L70.2909 9.2049C67.8343 9.38593 65.6945 9.9631 63.8674 10.7256C63.1463 10.4487 62.3742 10.3039 61.5894 10.3039C61.4341 10.3039 61.2767 10.3103 61.1193 10.3209L56.1443 10.6894L56.1549 10.5722C56.3166 8.70653 55.6529 6.86427 54.3384 5.53103C53.1346 4.31067 51.4968 3.63127 49.7973 3.63127C49.642 3.63127 49.4846 3.63766 49.3272 3.64831L39.6877 4.35965C36.5652 4.58967 34.0703 7.05595 33.8001 10.1803L33.4853 13.8095C31.1435 12.9554 28.4018 12.5316 25.2156 12.5316C24.2584 12.5316 23.2417 12.5699 22.1974 12.6487L20.2341 12.7936C13.4596 13.2941 8.47396 15.1427 4.98569 18.446C2.0717 21.2126 0.412638 24.8396 0.057429 29.2291V29.2631C-0.019143 30.2428 -0.019143 31.214 0.057429 32.2299C0.363717 36.3809 2.06106 39.8907 4.96442 42.3762C8.12726 45.0831 12.5833 46.4547 18.2114 46.4547C19.1558 46.4547 20.1533 46.4164 21.1743 46.3418L23.029 46.2055C27.651 45.8648 31.4136 44.9766 34.4085 43.522C35.4337 44.1844 36.6333 44.5422 37.8648 44.5422C38.0201 44.5422 38.1775 44.5358 38.3349 44.5251L47.9745 43.8138C48.4615 43.7776 48.9316 43.6881 49.3825 43.5497C49.6973 43.5987 50.0185 43.6221 50.3397 43.6221C50.495 43.6221 50.6524 43.6157 50.8097 43.6051L60.4493 42.8937C62.2998 42.7574 63.9291 41.8352 65.0053 40.4573C66.1922 41.5882 67.7683 42.2143 69.3997 42.2143C69.555 42.2143 69.7124 42.2079 69.8698 42.1973L79.5455 41.4817C80.0198 41.4476 80.4771 41.3603 80.9153 41.2282C81.2195 41.273 81.5257 41.2964 81.8363 41.2964C81.9916 41.2964 82.1489 41.29 82.3064 41.2793L91.9459 40.568C93.7964 40.4317 95.4257 39.5095 96.5019 38.1315C97.6888 39.2624 99.2649 39.8886 100.896 39.8886C101.052 39.8886 101.209 39.8822 101.366 39.8716L111.042 39.156C112.918 39.0175 114.567 38.0719 115.643 36.6599C118.238 37.8547 121.492 38.5724 125.499 38.5724C126.403 38.5724 127.354 38.5362 128.322 38.4638L130.94 38.27C135.622 37.9249 139.457 36.9644 142.524 35.3628C143.598 36.1232 144.885 36.5385 146.21 36.5385C146.365 36.5385 146.523 36.5321 146.68 36.5214L156.32 35.8101C159.444 35.5801 161.937 33.1116 162.207 29.9873L162.573 25.7575C162.862 25.798 163.156 25.8193 163.451 25.8193C163.607 25.8193 163.764 25.8129 163.921 25.8023L167.739 25.5211L167.569 27.5742C167.414 29.4357 168.082 31.2737 169.394 32.6005C170.596 33.8166 172.232 34.4939 173.927 34.4939C174.082 34.4939 174.239 34.4875 174.397 34.4768L184.036 33.7655C185.887 33.6292 187.516 32.707 188.592 31.329C189.781 32.4599 191.355 33.0861 192.987 33.0861C193.142 33.0861 193.3 33.0797 193.457 33.0691L203.133 32.3534C206.266 32.1213 208.763 29.6422 209.022 26.5072L210.007 14.5762C210.326 10.766 209.101 7.05169 206.651 4.38521V4.37882Z" fill="white" stroke="black" stroke-width="2" stroke-linejoin="round" mask="url(#path-1-inside-1_325_11601)"/>
<path d="M36.4694 31.0756C36.2311 33.8038 35.0358 38.9089 22.5588 39.829L20.704 39.9653C9.8287 40.7682 6.76582 36.4171 6.42125 31.7571C6.37658 31.1373 6.36382 30.4792 6.42125 29.7423C6.78496 25.2485 9.17784 20.0178 20.7104 19.1659L22.6736 19.021C34.0212 18.1819 36.3013 22.8099 36.6459 27.472C36.6991 28.2004 36.6757 29.3739 36.5991 29.819L15.829 31.3525C15.9715 33.282 17.5135 34.8538 21.4038 34.5663H21.44C25.8407 34.2383 26.7617 32.3385 26.9021 31.7805L36.4672 31.0735L36.4694 31.0756ZM16.1863 27.3016L27.2084 26.488C26.8894 24.6437 25.426 23.6533 21.7888 23.9217C18.1155 24.1921 16.7478 25.502 16.1863 27.3016Z" fill="black"/>
<path d="M47.5067 37.4394L37.8672 38.1507L39.5156 18.3289L49.1552 17.6175L47.5067 37.4394ZM49.2892 15.9584L39.6496 16.6698L40.1622 10.7362L49.8018 10.0249L49.2892 15.9584Z" fill="black"/>
<path d="M51.9918 17.4067L61.5952 16.6975L61.2719 20.2371C61.9121 19.4938 65.0559 16.0031 70.7668 15.5814L70.9859 15.5644C78.1135 15.0384 80.3788 19.4491 80.0682 23.1698L79.0834 35.1072L69.4077 35.8229L70.2096 26.3517C70.418 23.7364 69.2588 21.8813 65.9492 22.1263C62.7119 22.3648 61.0018 24.469 60.7657 27.2335L59.9872 36.5193L50.3477 37.2306L51.9961 17.4088L51.9918 17.4067Z" fill="black"/>
<path d="M84.1327 7.48829L93.7723 6.77695L92.8683 17.8305C93.4745 17.1255 96.5119 13.6796 102.259 13.2557L102.478 13.2387C109.644 12.7084 111.871 17.1234 111.56 20.8441L110.576 32.7815L100.9 33.4971L101.702 24.026C101.91 21.4106 100.751 19.5556 97.4414 19.8005C94.2041 20.0391 92.494 22.1433 92.2579 24.9077L91.4794 34.1936L81.8398 34.9049L84.1349 7.49042L84.1327 7.48829Z" fill="black"/>
<path d="M127.856 32.0872C116.689 32.9115 113.726 27.932 113.428 23.8897C113.388 23.3445 113.337 22.6523 113.403 22.0602C113.675 17.8284 115.672 12.1525 127.966 11.2431L130.621 11.0472C141.968 10.208 144.685 14.8041 144.989 18.9209C145.029 19.4662 145.044 20.1626 144.989 20.9357C144.702 24.9844 143.276 30.9499 130.474 31.8955L127.856 32.0894V32.0872ZM129.319 16.7102C124.01 17.1021 123.066 20.1754 123.244 22.6161C123.389 24.5819 124.823 26.6733 129.043 26.3624H129.079C134.279 25.9748 135.396 22.7439 135.213 20.267C135.071 18.3374 133.611 16.395 129.355 16.7081H129.319V16.7102Z" fill="black"/>
<path d="M155.854 29.4335L146.215 30.1449L147.863 10.323L157.467 9.61381L157.15 13.2621C157.83 12.0758 160.306 8.96423 164.926 8.62347L165.29 8.59578C171.581 8.13149 173.272 12.6935 172.902 17.1149L172.766 18.7357L163.454 19.4236L163.512 18.7229C163.65 16.625 162.963 14.7359 160.379 14.9255C158.088 15.0937 156.926 16.7188 156.72 19.3703L155.852 29.4314L155.854 29.4335Z" fill="black"/>
<path d="M175.578 8.27631L185.181 7.5671L184.858 11.1068C185.498 10.3635 188.642 6.87279 194.353 6.45109L194.572 6.43405C201.699 5.908 203.965 10.3188 203.654 14.0395L202.669 25.9769L192.994 26.6925L193.796 17.2214C194.004 14.606 192.845 12.751 189.535 12.9959C186.298 13.2344 184.588 15.3387 184.352 18.1031L183.573 27.3889L173.934 28.1003L175.582 8.27844L175.578 8.27631Z" fill="black"/>
</svg>
