<svg version="1.1" xmlns="http://www.w3.org/2000/svg" viewBox="0 0 261.8 82.2">
<style type="text/css">
	.st0{fill:#F1F1F1;}
</style>
	<path class="st0" d="M180.5,36.2h-6.7c-4.4,0-7.4,1.3-7.4,7.3v1.5c0,6.8,4.2,7.6,8.2,7.6h6.1c3.4,0,7-1.2,7-5.5v-1.4h-5.8v0.4
		c0,1.5-1.5,1.8-3.2,1.8h-3.1c-1.9,0-3.2-0.6-3.2-2.7v-2.1c0-1.7,1.2-2.4,3.7-2.4h2.3c2.6,0,3.5,0.6,3.5,2.2h5.8v-1.4
		C187.6,37.8,184.9,36.2,180.5,36.2z"/>
	<rect x="190.3" y="29.8" class="st0" width="6" height="22.6"/>
	<path class="st0" d="M214.4,44.5c0,2.3-1.5,3.5-4.1,3.5h-1.4c-2.6,0-3.9-0.8-3.9-2.3v-9.2h-6v9.2c0,6.9,5.2,7,8.9,7
		c3.2,0,5.3-0.6,6.4-2.8h0.1v2.6h6V36.5h-6V44.5z"/>
	<path class="st0" d="M236.3,36.2h-1.8c-2.5,0-5,0.7-5.4,3.2h-0.1v-9.6h-6v22.6h5.6v-2.9h0.1c0.7,2,2.2,3.2,5.8,3.2h1.7
		c7.6,0,8.5-2.7,8.5-6.8V43C244.8,38.9,243.9,36.2,236.3,36.2z M239,45.4c0,1.8-0.3,2.8-3.2,2.8h-3.5c-2.4,0-3.6-0.5-3.6-2.9v-1.6
		c0-2.4,1.2-2.9,3.6-2.9h3.5c2.9,0,3.2,1,3.2,2.8V45.4z"/>
	<path class="st0" d="M104,44.6c0,2.1-1.3,2.4-3.6,2.4h-2.7c-2.2,0-3-0.7-3-2.4v-2h-6.7v2.7c0,5.3,2.4,7.3,8.9,7.3h4.5
		c6.3,0,9.7-1.2,9.7-7.4V29.8H104V44.6z"/>
	<polygon class="st0" points="163.1,29.8 155.4,39 147.8,29.8 139.5,29.8 152,44.5 152,52.4 158.9,52.4 158.9,44.5 171.4,29.8 	"/>
	<path class="st0" d="M136.3,30.2c-0.4-0.5-0.9-0.7-1.5-0.7h-11.1c-6.2,0-10,1.6-10,8.2v6.7c0,6.6,3.7,8.2,10,8.2h11.1
		c6.2,0,10-1.6,10-8.2v-2.7c0-1.1-0.4-2.1-1.1-2.9L136.3,30.2z M137.6,42.3c0,2.5-2,4.5-4.5,4.5h-8.3c-2.2,0-4-1.8-4-4v-3
		c0-2.8,0.7-4.5,4.3-4.5h8.1c3.7,0,4.3,1.7,4.3,4.5V42.3z"/>
	<rect x="25.5" y="17" class="st0" width="5.7" height="5.7"/>
	<rect x="34" y="17" class="st0" width="5.7" height="5.7"/>
	<rect x="51" y="17" class="st0" width="5.7" height="5.7"/>
	<rect x="59.5" y="17" class="st0" width="5.7" height="5.7"/>
	<rect x="17" y="25.5" class="st0" width="5.7" height="5.7"/>
	<rect x="25.5" y="25.5" class="st0" width="5.7" height="5.7"/>
	<rect x="34" y="25.5" class="st0" width="5.7" height="5.7"/>
	<rect x="42.5" y="25.5" class="st0" width="5.7" height="5.7"/>
	<rect x="51" y="25.5" class="st0" width="5.7" height="5.7"/>
	<rect x="59.5" y="25.5" class="st0" width="5.7" height="5.7"/>
	<rect x="68" y="25.5" class="st0" width="5.7" height="5.7"/>
	<rect x="17" y="34" class="st0" width="5.7" height="5.7"/>
	<rect x="25.5" y="34" class="st0" width="5.7" height="5.7"/>
	<rect x="34" y="34" class="st0" width="5.7" height="5.7"/>
	<rect x="42.5" y="34" class="st0" width="5.7" height="5.7"/>
	<rect x="51" y="34" class="st0" width="5.7" height="5.7"/>
	<rect x="59.5" y="34" class="st0" width="5.7" height="5.7"/>
	<rect x="68" y="34" class="st0" width="5.7" height="5.7"/>
	<rect x="25.5" y="42.5" class="st0" width="5.7" height="5.7"/>
	<rect x="34" y="42.5" class="st0" width="5.7" height="5.7"/>
	<rect x="42.5" y="42.5" class="st0" width="5.7" height="5.7"/>
	<rect x="51" y="42.5" class="st0" width="5.7" height="5.7"/>
	<rect x="59.5" y="42.5" class="st0" width="5.7" height="5.7"/>
	<rect x="34" y="51" class="st0" width="5.7" height="5.7"/>
	<rect x="42.5" y="51" class="st0" width="5.7" height="5.7"/>
	<rect x="51" y="51" class="st0" width="5.7" height="5.7"/>
	<rect x="42.5" y="59.5" class="st0" width="5.7" height="5.7"/>
</svg>
