<svg width="587px" height="169px" viewBox="0 0 587 169" version="1.1" xmlns="http://www.w3.org/2000/svg" xmlns:xlink="http://www.w3.org/1999/xlink" transform="rotate(0) scale(1, 1)">
    <!-- Generator: Sketch 52.4 (67378) - http://www.bohemiancoding.com/sketch -->
    <title>Lustery Copy</title>
    <desc>Created with Sketch.</desc>
    <g id="Page-1" stroke="none" stroke-width="1" fill="none" fill-rule="evenodd">
        <g id="A4" transform="translate(-128.000000, -233.000000)" fill="#ffffff">
            <path d="M611.235147,322.264201 C609.508662,325.64459 607.634459,328.981499 605.6125,332.275 C603.187488,336.22502 600.550014,339.749984 597.7,342.85 C594.849986,345.950016 591.812516,348.449991 588.5875,350.35 C585.362484,352.25001 582.000018,353.2 578.5,353.2 C574.299979,353.2 570.925013,352.500007 568.375,351.1 C565.824987,349.699993 563.850007,347.500015 562.45,344.5 C561.049993,341.499985 560.125002,337.637524 559.675,332.9125 C559.224998,328.187476 559,322.500033 559,315.85 L559,305.95 C559,302.949985 558.837502,300.46251 558.5125,298.4875 C558.187498,296.51249 557.525005,294.900006 556.525,293.65 C555.524995,292.399994 554.07501,291.425004 552.175,290.725 C550.274991,290.024996 547.750016,289.450002 544.6,289 C543.849996,290.350007 543.150003,292.124989 542.5,294.325 C542.15672,295.486871 541.796011,296.634787 541.41787,297.768758 C541.393008,297.888624 541.353718,298.015705 541.3,298.15 C540.249995,301.350016 538.887508,304.93748 537.2125,308.9125 C535.537492,312.88752 533.562511,316.91248 531.2875,320.9875 C529.012489,325.06252 526.437514,329.024981 523.5625,332.875 C520.687486,336.725019 517.512517,340.162485 514.0375,343.1875 C510.562483,346.212515 506.775021,348.637491 502.675,350.4625 C498.57498,352.287509 494.200023,353.2 489.55,353.2 C482.849967,353.2 477.175023,352.262509 472.525,350.3875 C467.874977,348.512491 464.100015,346.000016 461.2,342.85 C458.299986,339.699984 456.200007,336.08752 454.9,332.0125 C454.284997,330.084703 453.815468,328.120552 453.491411,326.120034 C452.354849,328.188274 451.161882,330.239924 449.9125,332.275 C447.487488,336.22502 444.850014,339.749984 442,342.85 C439.149986,345.950016 436.112516,348.449991 432.8875,350.35 C429.662484,352.25001 426.300017,353.2 422.8,353.2 C419.499983,353.2 416.625012,352.550006 414.175,351.25 C411.724988,349.949994 409.612509,348.162511 407.8375,345.8875 C406.062491,343.612489 404.587506,340.937515 403.4125,337.8625 C402.237494,334.787485 401.312503,331.462518 400.6375,327.8875 C399.962497,324.312482 399.487501,320.575019 399.2125,316.675 C399.19434,316.417457 399.176779,316.160022 399.159819,315.902697 C398.083156,317.86525 396.888228,319.697667 395.575,321.4 C394.224993,323.150009 392.687509,324.787492 390.9625,326.3125 C389.237491,327.837508 387.300011,329.299993 385.15,330.7 C385.1,334.400018 384.462506,337.649986 383.2375,340.45 C382.012494,343.250014 380.37501,345.61249 378.325,347.5375 C376.27499,349.46251 373.900014,350.912495 371.2,351.8875 C368.499986,352.862505 365.650015,353.35 362.65,353.35 C360.64999,353.35 358.737509,353.037503 356.9125,352.4125 C355.087491,351.787497 353.475007,350.912506 352.075,349.7875 C350.674993,348.662494 349.550004,347.325008 348.7,345.775 C347.849996,344.224992 347.425,342.550009 347.425,340.75 C347.375,338.049986 348.287491,335.575011 350.1625,333.325 C352.037509,331.074989 355.349976,328.850011 360.1,326.65 L360.1,325 C360.1,321.949985 358.900012,318.612518 356.5,314.9875 C354.099988,311.362482 350.250026,307.650019 344.95,303.85 C343.949995,303.099996 342.962505,302.512502 341.9875,302.0875 C341.03938,301.674217 340.126733,301.083639 339.249535,300.31575 C338.395536,302.731311 337.395696,305.409379 336.25,308.35 C334.749992,312.200019 333.00001,316.16248 331,320.2375 C328.99999,324.31252 326.787512,328.32498 324.3625,332.275 C321.937488,336.22502 319.300014,339.749984 316.45,342.85 C313.599986,345.950016 310.562516,348.449991 307.3375,350.35 C304.112484,352.25001 300.750018,353.2 297.25,353.2 C294.149985,353.2 291.512511,352.837504 289.3375,352.1125 C287.162489,351.387496 285.350007,350.250008 283.9,348.7 C282.449993,347.149992 281.300004,345.162512 280.45,342.7375 C279.599996,340.312488 278.975002,337.425017 278.575,334.075 C273.824976,346.825064 265.300062,353.2 253,353.2 C248.349977,353.2 244.475016,352.17501 241.375,350.125 C238.274985,348.07499 235.800009,345.450016 233.95,342.25 C232.099991,339.049984 230.787504,335.512519 230.0125,331.6375 C229.366271,328.406353 228.989471,325.253467 228.882095,322.178774 C226.930893,325.971036 224.782712,329.711414 222.4375,333.4 C219.862487,337.45002 217.112515,341.049984 214.1875,344.2 C211.262485,347.350016 208.150017,349.88749 204.85,351.8125 C201.549984,353.73751 198.150018,354.7 194.65,354.7 C191.249983,354.7 187.862517,354.487502 184.4875,354.0625 C181.112483,353.637498 177.950015,353.137503 175,352.5625 C172.049985,351.987497 169.400012,351.400003 167.05,350.8 C164.699988,350.199997 162.850007,349.700002 161.5,349.3 C159.249989,351.550011 156.825013,353.174995 154.225,354.175 C151.624987,355.175005 148.975014,355.675 146.275,355.675 C144.574992,355.675 142.675011,355.375003 140.575,354.775 C138.47499,354.174997 136.500009,353.225007 134.65,351.925 C132.799991,350.624994 131.250006,348.95001 130,346.9 C128.749994,344.84999 128.125,342.350015 128.125,339.4 C128.125,338.249994 128.312498,336.900008 128.6875,335.35 C129.062502,333.799992 129.712495,332.287507 130.6375,330.8125 C131.562505,329.337493 132.799992,328.000006 134.35,326.8 C135.900008,325.599994 137.849988,324.750002 140.2,324.25 C140.350001,324.2 140.4375,324.412498 140.4625,324.8875 C140.4875,325.362502 140.5,325.874997 140.5,326.425 C140.5,326.975003 140.525,327.487498 140.575,327.9625 C140.625,328.437502 140.724999,328.675 140.875,328.675 C142.475008,325.224983 143.962493,321.687518 145.3375,318.0625 C146.712507,314.437482 147.937495,310.62502 149.0125,306.625 C150.087505,302.62498 151.037496,298.337523 151.8625,293.7625 C152.687504,289.187477 153.324998,284.225027 153.775,278.875 C154.175002,274.324977 155.062493,270.03752 156.4375,266.0125 C157.812507,261.98748 159.52499,258.275017 161.575,254.875 C163.62501,251.474983 165.949987,248.437513 168.55,245.7625 C171.150013,243.087487 173.887486,240.825009 176.7625,238.975 C179.637514,237.124991 182.587485,235.700005 185.6125,234.7 C188.637515,233.699995 191.574986,233.2 194.425,233.2 C194.925003,233.2 195.462497,233.225 196.0375,233.275 C196.612503,233.325 197.149998,233.449999 197.65,233.65 C198.150003,233.850001 198.562498,234.174998 198.8875,234.625 C199.212502,235.075002 199.375,235.674996 199.375,236.425 C199.375,237.325005 199.137502,237.999998 198.6625,238.45 C198.187498,238.900002 197.562504,239.312498 196.7875,239.6875 C196.012496,240.062502 195.112505,240.524997 194.0875,241.075 C193.062495,241.625003 191.975006,242.474994 190.825,243.625 C189.674994,244.775006 188.512506,246.31249 187.3375,248.2375 C186.162494,250.16251 185.050005,252.699984 184,255.85 C182.949995,259.000016 181.987504,262.874977 181.1125,267.475 C180.237496,272.075023 179.525003,277.599968 178.975,284.05 C178.824999,285.500007 178.600002,287.26249 178.3,289.3375 C177.999999,291.41251 177.625002,293.662488 177.175,296.0875 C176.724998,298.512512 176.212503,301.062487 175.6375,303.7375 C175.062497,306.412513 174.462503,309.062487 173.8375,311.6875 C173.212497,314.312513 172.562503,316.874987 171.8875,319.375 C171.212497,321.875013 170.550003,324.17499 169.9,326.275 C173.250017,327.025004 176.574984,327.824996 179.875,328.675 C183.175017,329.525004 186.349985,330.312496 189.4,331.0375 C192.450015,331.762504 195.349986,332.362498 198.1,332.8375 C200.850014,333.312502 203.349989,333.55 205.6,333.55 C206.900007,333.55 208.349992,332.950006 209.95,331.75 C211.550008,330.549994 213.174992,328.95001 214.825,326.95 C216.475008,324.94999 218.137492,322.675013 219.8125,320.125 C221.487508,317.574987 223.074993,314.950014 224.575,312.25 C226.075008,309.549986 227.449994,306.887513 228.7,304.2625 C229.935702,301.667526 230.975939,299.304683 231.820741,297.173903 C232.347075,295.357563 232.956826,293.582935 233.65,291.85 C234.850006,288.849985 236.337491,286.212511 238.1125,283.9375 C239.887509,281.662489 241.987488,279.837507 244.4125,278.4625 C246.837512,277.087493 249.649984,276.4 252.85,276.4 C254.75001,276.4 256.074996,277.037494 256.825,278.3125 C257.575004,279.587506 257.95,281.349989 257.95,283.6 C257.95,287.350019 257.800002,291.037482 257.5,294.6625 C257.199998,298.287518 256.875002,301.862482 256.525,305.3875 C256.174998,308.912518 255.850002,312.437482 255.55,315.9625 C255.249999,319.487518 255.1,322.999982 255.1,326.5 C255.1,327.800006 255.224999,329.037494 255.475,330.2125 C255.725001,331.387506 256.087498,332.424996 256.5625,333.325 C257.037502,334.225005 257.637496,334.937497 258.3625,335.4625 C259.087504,335.987503 259.949995,336.25 260.95,336.25 C262.550008,336.25 264.32499,335.637506 266.275,334.4125 C268.22501,333.187494 270.049992,331.412512 271.75,329.0875 C273.450009,326.762488 274.874994,323.937517 276.025,320.6125 C277.175006,317.287483 277.75,313.550021 277.75,309.4 L277.75,298.3 C277.75,296.449991 277.7875,294.287512 277.8625,291.8125 C277.9375,289.337488 278.199998,287.012511 278.65,284.8375 C279.100002,282.662489 279.799995,280.812508 280.75,279.2875 C281.700005,277.762492 283.049991,277 284.8,277 C285.500004,277 286.462494,277.087499 287.6875,277.2625 C288.912506,277.437501 290.224993,277.712498 291.625,278.0875 C293.025007,278.462502 294.449993,278.949997 295.9,279.55 C297.350007,280.150003 298.662494,280.887496 299.8375,281.7625 C301.012506,282.637504 301.974996,283.662494 302.725,284.8375 C303.475004,286.012506 303.85,287.349992 303.85,288.85 C303.85,290.250007 303.8375,292.262487 303.8125,294.8875 C303.7875,297.512513 303.75,300.387484 303.7,303.5125 C303.65,306.637516 303.6125,309.799984 303.5875,313 C303.5625,316.200016 303.55,319.049988 303.55,321.55 C303.55,323.000007 303.575,324.362494 303.625,325.6375 C303.675,326.912506 303.849999,328.024995 304.15,328.975 C304.450002,329.925005 304.912497,330.674997 305.5375,331.225 C306.162503,331.775003 307.049994,332.05 308.2,332.05 C309.500007,332.05 310.937492,331.412506 312.5125,330.1375 C314.087508,328.862494 315.674992,327.20001 317.275,325.15 C318.875008,323.09999 320.474992,320.787513 322.075,318.2125 C323.675008,315.637487 325.174993,313.062513 326.575,310.4875 C326.890154,309.907841 327.197706,309.333885 327.497657,308.765631 C327.805065,308.027088 328.135011,307.288548 328.4875,306.55 C329.012503,305.449995 329.524998,304.412505 330.025,303.4375 C330.525003,302.462495 330.824999,301.650003 330.925,301 C331.025001,300.349997 331.149999,299.587504 331.3,298.7125 C331.450001,297.837496 331.525,296.975004 331.525,296.125 C331.525,294.574992 331.150004,293.500003 330.4,292.9 C328.29999,291.249992 326.750005,289.287511 325.75,287.0125 C324.749995,284.737489 324.25,282.300013 324.25,279.7 C324.25,277.549989 324.562497,275.312512 325.1875,272.9875 C325.812503,270.662488 326.687494,268.562509 327.8125,266.6875 C328.937506,264.812491 330.262492,263.262506 331.7875,262.0375 C333.312508,260.812494 334.949991,260.2 336.7,260.2 C338.850011,260.2 340.649993,260.487497 342.1,261.0625 C343.550007,261.637503 344.687496,262.524994 345.5125,263.725 C346.337504,264.925006 346.924998,266.462491 347.275,268.3375 C347.625002,270.212509 347.8,272.449987 347.8,275.05 C347.8,276.650008 348.524993,278.137493 349.975,279.5125 C351.425007,280.887507 353.299989,282.374992 355.6,283.975 C357.900012,285.575008 360.449986,287.34999 363.25,289.3 C366.050014,291.25001 368.787487,293.624986 371.4625,296.425 C374.137513,299.225014 376.587489,302.512481 378.8125,306.2875 C381.037511,310.062519 382.749994,314.549974 383.95,319.75 C385.95001,318.449994 387.649993,316.925009 389.05,315.175 C390.450007,313.424991 391.662495,311.612509 392.6875,309.7375 C393.712505,307.862491 394.599996,306.000009 395.35,304.15 C396.100004,302.299991 396.849996,300.662507 397.6,299.2375 C397.983648,298.508568 398.383647,297.848328 398.8,297.256774 L398.8,296.125 C395.499983,295.974999 393.000009,295.550004 391.3,294.85 C389.599991,294.149997 388.75,292.80001 388.75,290.8 C388.75,288.349988 389.76249,286.275009 391.7875,284.575 C393.81251,282.874991 396.374984,281.500005 399.475,280.45 C399.975002,275.549976 400.799994,271.07502 401.95,267.025 C403.100006,262.97498 404.487492,259.487515 406.1125,256.5625 C407.737508,253.637485 409.54999,251.362508 411.55,249.7375 C413.55001,248.112492 415.599989,247.3 417.7,247.3 C418.950006,247.3 420.187494,247.499998 421.4125,247.9 C422.637506,248.300002 423.737495,248.949995 424.7125,249.85 C425.687505,250.750004 426.487497,251.962492 427.1125,253.4875 C427.737503,255.012508 428.05,256.899989 428.05,259.15 C428.05,260.900009 427.975001,262.387494 427.825,263.6125 C427.674999,264.837506 427.487501,266.049994 427.2625,267.25 C427.037499,268.450006 426.800001,269.762493 426.55,271.1875 C426.299999,272.612507 426.050001,274.374989 425.8,276.475 C426.800005,276.425 427.687496,276.4 428.4625,276.4 L430.45,276.4 C432.40001,276.4 434.274991,276.487499 436.075,276.6625 C437.875009,276.837501 439.474993,277.174998 440.875,277.675 C442.275007,278.175003 443.387496,278.887495 444.2125,279.8125 C445.037504,280.737505 445.45,281.949993 445.45,283.45 C445.45,284.650006 445.187503,285.887494 444.6625,287.1625 C444.137497,288.437506 443.450004,289.624995 442.6,290.725 C441.749996,291.825005 440.762506,292.774996 439.6375,293.575 C438.512494,294.375004 437.350006,294.899999 436.15,295.15 C435.149995,295.400001 433.775009,295.587499 432.025,295.7125 C430.274991,295.837501 427.900015,295.949999 424.9,296.05 L424.9,299.35 C424.9,300.900008 424.962499,302.787489 425.0875,305.0125 C425.212501,307.237511 425.424999,309.562488 425.725,311.9875 C426.025002,314.412512 426.399998,316.812488 426.85,319.1875 C427.300002,321.562512 427.849997,323.71249 428.5,325.6375 C429.150003,327.56251 429.912496,329.112494 430.7875,330.2875 C431.662504,331.462506 432.649994,332.05 433.75,332.05 C435.050006,332.05 436.487492,331.412506 438.0625,330.1375 C439.637508,328.862494 441.224992,327.20001 442.825,325.15 C444.425008,323.09999 446.024992,320.787513 447.625,318.2125 C449.225008,315.637487 450.724993,313.062513 452.125,310.4875 C453.385899,308.168347 454.525109,305.940479 455.54266,303.803841 C456.128989,302.105735 456.814767,300.446126 457.6,298.825 C457.899408,298.206868 458.212341,297.596666 458.538799,296.994394 C458.681291,296.621492 458.868728,296.286047 459.101113,295.988059 C460.336402,293.842543 461.748525,291.8007 463.3375,289.8625 C465.612511,287.087486 468.237485,284.68751 471.2125,282.6625 C474.187515,280.63749 477.512482,279.037506 481.1875,277.8625 C484.862518,276.687494 488.849979,276.1 493.15,276.1 C495.650013,276.1 497.987489,276.574995 500.1625,277.525 C502.337511,278.475005 504.224992,279.737492 505.825,281.3125 C507.425008,282.887508 508.687495,284.71249 509.6125,286.7875 C510.537505,288.86251 511,291.049989 511,293.35 C511,295.600011 510.425006,298.049987 509.275,300.7 C508.124994,303.350013 506.300013,305.899988 503.8,308.35 C501.299988,310.800012 498.06252,312.949991 494.0875,314.8 C490.11248,316.650009 485.325028,317.874997 479.725,318.475 C480.025002,320.575011 480.587496,322.574991 481.4125,324.475 C482.237504,326.37501 483.337493,328.024993 484.7125,329.425 C486.087507,330.825007 487.74999,331.937496 489.7,332.7625 C491.65001,333.587504 493.949987,334 496.6,334 C499.900017,334 503.024985,333.337507 505.975,332.0125 C508.925015,330.687493 511.674987,328.962511 514.225,326.8375 C516.775013,324.712489 519.112489,322.312513 521.2375,319.6375 C523.362511,316.962487 525.274992,314.262514 526.975,311.5375 C528.673713,308.814563 530.135265,306.191513 531.359699,303.668272 C531.507402,303.304698 531.645834,303.015276 531.775,302.8 C531.783279,302.783995 531.791539,302.768011 531.799781,302.752048 C532.818795,300.607964 533.635528,298.723963 534.25,297.1 C534.274063,297.031822 534.299573,296.96485 534.326531,296.899084 C534.413167,296.615196 534.487656,296.344669 534.55,296.0875 C534.750001,295.262496 534.875,294.525003 534.925,293.875 C534.975,293.224997 535,292.600003 535,292 C535,290.949995 534.887501,290.137503 534.6625,289.5625 C534.437499,288.987497 534.200001,288.600001 533.95,288.4 C531.89999,286.699992 530.362505,284.737511 529.3375,282.5125 C528.312495,280.287489 527.8,277.850013 527.8,275.2 C527.8,273.049989 528.112497,270.900011 528.7375,268.75 C529.362503,266.599989 530.237494,264.662509 531.3625,262.9375 C532.487506,261.212491 533.812492,259.825005 535.3375,258.775 C536.862508,257.724995 538.499991,257.2 540.25,257.2 C542.400011,257.2 544.199993,257.487497 545.65,258.0625 C547.100007,258.637503 548.237496,259.449995 549.0625,260.5 C549.887504,261.550005 550.474998,262.774993 550.825,264.175 C551.175002,265.575007 551.35,267.099992 551.35,268.75 C551.35,270.350008 551.325,271.512496 551.275,272.2375 C551.225,272.962504 551.2,273.599997 551.2,274.15 L551.2,275.875 C551.2,276.425003 551.324999,276.974997 551.575,277.525 C551.825001,278.075003 552.249997,278.624997 552.85,279.175 C553.450003,279.725003 554.374994,280.287497 555.625,280.8625 C556.875006,281.437503 558.48749,282.037497 560.4625,282.6625 C562.43751,283.287503 564.924985,283.949996 567.925,284.65 C569.275007,284.950001 570.93749,285.362497 572.9125,285.8875 C574.88751,286.412503 576.774991,287.112496 578.575,287.9875 C580.375009,288.862504 581.912494,289.974993 583.1875,291.325 C584.462506,292.675007 585.1,294.34999 585.1,296.35 C585.1,299.150014 585.050001,302.787478 584.95,307.2625 C584.849999,311.737522 584.8,316.499975 584.8,321.55 C584.8,323.000007 584.825,324.362494 584.875,325.6375 C584.925,326.912506 585.099998,328.024995 585.4,328.975 C585.700001,329.925005 586.162497,330.674997 586.7875,331.225 C587.412503,331.775003 588.299994,332.05 589.45,332.05 C590.750006,332.05 592.174992,331.412506 593.725,330.1375 C595.275008,328.862494 596.862492,327.21251 598.4875,325.1875 C600.112508,323.16249 601.724992,320.862513 603.325,318.2875 C604.925008,315.712487 606.424993,313.137513 607.825,310.5625 C609.225007,307.987487 610.474994,305.512512 611.575,303.1375 C612.61964,300.882028 613.461346,298.976059 614.100142,297.419541 C614.642326,295.517481 615.27561,293.660974 616,291.85 C617.200006,288.849985 618.687491,286.212511 620.4625,283.9375 C622.237509,281.662489 624.337488,279.837507 626.7625,278.4625 C629.187512,277.087493 631.999984,276.4 635.2,276.4 C637.10001,276.4 638.424996,277.037494 639.175,278.3125 C639.925004,279.587506 640.3,281.349989 640.3,283.6 C640.3,287.350019 640.150002,291.037482 639.85,294.6625 C639.549999,298.287518 639.225002,301.862482 638.875,305.3875 C638.524998,308.912518 638.200002,312.437482 637.9,315.9625 C637.599999,319.487518 637.45,322.999982 637.45,326.5 C637.45,327.800006 637.574999,329.037494 637.825,330.2125 C638.075001,331.387506 638.437498,332.424996 638.9125,333.325 C639.387502,334.225005 639.987496,334.937497 640.7125,335.4625 C641.437504,335.987503 642.299995,336.25 643.3,336.25 C644.900008,336.25 646.67499,335.637506 648.625,334.4125 C650.57501,333.187494 652.399991,331.412512 654.1,329.0875 C655.800009,326.762488 657.224994,323.937517 658.375,320.6125 C659.525006,317.287483 660.1,313.550021 660.1,309.4 L660.1,305.8 C660.1,304.099991 660.1375,302.21251 660.2125,300.1375 C660.2875,298.06249 660.487498,295.950011 660.8125,293.8 C661.137502,291.649989 661.624997,289.57501 662.275,287.575 C662.925003,285.57499 663.812494,283.787508 664.9375,282.2125 C666.062506,280.637492 667.462492,279.375005 669.1375,278.425 C670.812508,277.474995 672.849988,277 675.25,277 C676.500006,277 677.812493,277.199998 679.1875,277.6 C680.562507,278.000002 681.824994,278.649995 682.975,279.55 C684.125006,280.450004 685.074996,281.662492 685.825,283.1875 C686.575004,284.712508 686.95,286.599989 686.95,288.85 C686.95,289.900005 686.900001,291.287491 686.8,293.0125 C686.7,294.737509 686.575001,296.724989 686.425,298.975 C686.274999,301.225011 686.087501,303.637487 685.8625,306.2125 C685.637499,308.787513 685.400001,311.424986 685.15,314.125 L684.4,322.225 C684.149999,324.925013 683.900001,327.499988 683.65,329.95 C688.600025,325.299977 693.07498,320.312527 697.075,314.9875 C701.07502,309.662473 704.349987,303.700033 706.9,297.1 C707.200002,296.249996 707.724996,295.587502 708.475,295.1125 C709.225004,294.637498 710.199994,294.4 711.4,294.4 C712.150004,294.4 712.787497,294.612498 713.3125,295.0375 C713.837503,295.462502 714.1,296.099996 714.1,296.95 L714.1,297.475 C714.1,297.675001 714.050001,297.899999 713.95,298.15 C712.099991,303.800028 710.062511,308.999976 707.8375,313.75 C705.612489,318.500024 703.175013,322.89998 700.525,326.95 C697.874987,331.00002 695.000016,334.787482 691.9,338.3125 C688.799984,341.837518 685.450018,345.199984 681.85,348.4 C681.549999,351.600016 681.200002,355.124981 680.8,358.975 C680.399998,362.825019 679.787504,366.72498 678.9625,370.675 C678.137496,374.62502 677.025007,378.462481 675.625,382.1875 C674.224993,385.912519 672.375012,389.212486 670.075,392.0875 C667.774988,394.962514 664.950017,397.274991 661.6,399.025 C658.249983,400.775009 654.250023,401.65 649.6,401.65 C647.849991,401.65 645.912511,401.262504 643.7875,400.4875 C641.662489,399.712496 639.675009,398.562508 637.825,397.0375 C635.974991,395.512492 634.425006,393.600011 633.175,391.3 C631.924994,388.999988 631.3,386.300015 631.3,383.2 C631.3,380.249985 631.912494,377.362514 633.1375,374.5375 C634.362506,371.712486 636.137488,368.887514 638.4625,366.0625 C640.787512,363.237486 643.662483,360.387514 647.0875,357.5125 C650.512517,354.637486 654.449978,351.650015 658.9,348.55 C659.050001,346.54999 659.175,344.625009 659.275,342.775 C659.375,340.924991 659.474999,339.100009 659.575,337.3 C654.674976,347.900053 646.600056,353.2 635.35,353.2 C630.699977,353.2 626.825016,352.17501 623.725,350.125 C620.624985,348.07499 618.150009,345.450016 616.3,342.25 C614.449991,339.049984 613.137504,335.512519 612.3625,331.6375 C611.722254,328.436271 611.346472,325.31186 611.235147,322.264201 Z M646.75,379.15 C646.75,380.300006 647.187496,381.262496 648.0625,382.0375 C648.937504,382.812504 650.099993,383.2 651.55,383.2 C652.050003,383.2 652.574997,382.725005 653.125,381.775 C653.675003,380.824995 654.174998,379.550008 654.625,377.95 C655.075002,376.349992 655.487498,374.487511 655.8625,372.3625 C656.237502,370.237489 656.549999,368.000012 656.8,365.65 C655.849995,366.450004 654.800006,367.387495 653.65,368.4625 C652.499994,369.537505 651.425005,370.674994 650.425,371.875 C649.424995,373.075006 648.575003,374.312494 647.875,375.5875 C647.174996,376.862506 646.8,378.049995 646.75,379.15 Z M497.8,295.45 C497.8,293.949993 497.412504,292.700005 496.6375,291.7 C495.862496,290.699995 494.45001,290.2 492.4,290.2 C490.39999,290.2 488.625008,290.787494 487.075,291.9625 C485.524992,293.137506 484.212505,294.68749 483.1375,296.6125 C482.062495,298.53751 481.212503,300.762487 480.5875,303.2875 C479.962497,305.812513 479.575001,308.424986 479.425,311.125 C481.825012,310.924999 484.137489,310.387504 486.3625,309.5125 C488.587511,308.637496 490.549992,307.500007 492.25,306.1 C493.950009,304.699993 495.299995,303.087509 496.3,301.2625 C497.300005,299.437491 497.8,297.50001 497.8,295.45 Z" id="Lustery-Copy"/>
        </g>
    </g>
</svg>