<?xml version="1.0" encoding="UTF-8"?>
<svg id="Layer_1" data-name="Layer 1" xmlns="http://www.w3.org/2000/svg" viewBox="0 0 995.61 432.89">
  <defs>
    <style>
      .cls-1 {
        fill: #fd00a0;
      }
    </style>
  </defs>
  <path class="cls-1" d="M0,45.02h74.84c70.47,0,113.63,40.42,113.63,116.91,0,83.58-49.71,125.65-113.63,128.92v136.57H0V45.02ZM113.63,166.84c0-37.15-12.02-73.75-38.79-73.75v154.6c24.58-2.73,38.79-38.24,38.79-80.85Z"/>
  <path class="cls-1" d="M232.17,45.02h108.71l49.16,382.41h-74.84l-6.55-66.1h-48.07l-6.56,66.1h-71.02L232.17,45.02ZM303.73,308.33l-19.12-195.57-19.13,195.57h38.24Z"/>
  <path class="cls-1" d="M406.98,323.63V45.02h74.84v286.8c0,30.05,7.1,44.8,20.75,44.8s20.76-14.75,20.76-44.8V45.02h74.84v278.61c0,75.39-31.68,109.26-95.6,109.26s-95.6-33.87-95.6-109.26Z"/>
  <path class="cls-1" d="M632.03,45.02h74.84v331.05h63.37v51.35h-138.21V45.02Z"/>
  <path class="cls-1" d="M789.9,45.02h74.84v382.41h-74.84V45.02Z"/>
  <path class="cls-1" d="M951.65,64.02c0-17.52-2.55-33.44-10.2-33.44s-13.69,15.29-10.51,62.11h-43.95c-1.92-66.26,12.74-92.69,54.78-92.69,36.63,0,53.83,25.8,53.83,63.71,0,47.46-24.84,89.82-60.84,121.04h56.7v40.77h-98.43v-40.77c35.35-33.76,58.61-73.9,58.61-120.72Z"/>
</svg>