<?xml version="1.0" encoding="utf-8"?>
<!-- Generator: Adobe Illustrator 24.1.2, SVG Export Plug-In . SVG Version: 6.00 Build 0)  -->
<svg version="1.1" id="Ebene_1" xmlns="http://www.w3.org/2000/svg" xmlns:xlink="http://www.w3.org/1999/xlink" x="0px" y="0px"
	 viewBox="0 0 500 500" style="enable-background:new 0 0 500 500;" xml:space="preserve">
<g>
	<path d="M374.9,125.1l-125,125h125l125-125C499.9,125.1,374.9,125.1,374.9,125.1z M374.9,250.1c-69,0-125,55.9-125,125
		s55.9,125,125,125s125-55.9,125-125S443.9,250.1,374.9,250.1 M0,125.1v125h125l125-125C250,125.1,0,125.1,0,125.1z M125,250.1
		l-62.5,62.5L125,375H0c0,69,55.9,125,125,125s125-55.9,125-125S194,250.1,125,250.1"/>
	<path d="M28.3,24.7c0-2.8,1.6-4.2,3.8-4.2c2.8,0,5.5,1.5,5.8,6.6h28.2C65.4,9.7,52.4,0,32.2,0c-17.8,0-32,8.7-32,25.5
		c-0.5,28.6,38.9,24.4,39.1,35.8c0,2.9-2.5,4.1-5.1,4.1s-5.9-1.1-6.4-7.2H0C1.2,77,16.2,85.8,35.3,85.8c20.2,0,31.9-11.3,31.9-26.7
		C67.2,33.4,28.3,35.2,28.3,24.7 M129.2,22.2h22.2V1.4H81.1v20.8h22V85h26.2L129.2,22.2L129.2,22.2z M243.9,48.5V1.4h-26.1v47.1
		c0,7.2-3.2,12.5-11.1,12.5S196,55.7,196,48.5V1.4h-26.1v47.1c0,24.7,15.3,37.3,36.2,37.3C227,85.8,243.9,73.2,243.9,48.5 M318.7,43
		c0,12.2-7.7,18.7-19.2,18.7h-6.3V24.3h6.3C311,24.3,318.7,30.8,318.7,43 M345.3,43c0-24.1-16.8-41.5-43.4-41.5H267V85h34.8
		C328.5,85,345.3,66.8,345.3,43 M366.5,85h26.2V1.4h-26.2V85z M473.3,42.8c0,11.1-5.8,18.5-16.3,18.5c-10.7,0-16.4-7.4-16.4-18.5
		c0-11.3,5.7-18.7,16.4-18.7C467.5,24.2,473.3,31.5,473.3,42.8 M499.9,42.8c0-25.1-19-42.8-42.8-42.8C433.4,0,414,17.7,414,42.8
		s19.4,43,43.1,43C480.6,85.8,499.9,68,499.9,42.8"/>
</g>
</svg>
